<svg width="43" height="43" viewBox="0 0 43 43" fill="none" xmlns="http://www.w3.org/2000/svg">
<path d="M0 21.5C0 9.62591 9.62591 0 21.5 0C33.3741 0 43 9.62591 43 21.5C43 33.3741 33.3741 43 21.5 43C9.62591 43 0 33.3741 0 21.5Z" fill="#1769FF"/>
<path fill-rule="evenodd" clip-rule="evenodd" d="M21.2047 17.9566C21.2047 17.1278 20.9877 16.4175 20.5548 15.8229C19.8334 14.8545 18.6105 14.3583 16.8818 14.333H10.0333V28.3138H16.4193C17.1393 28.3138 17.8055 28.2526 18.4216 28.1262C19.0379 27.9986 19.5705 27.7658 20.0222 27.4239C20.424 27.126 20.7584 26.7588 21.0254 26.3238C21.4474 25.6666 21.6578 24.923 21.6578 24.0943C21.6578 23.2908 21.473 22.6071 21.1063 22.0458C20.7355 21.483 20.1907 21.072 19.468 20.8113C19.944 20.5719 20.3041 20.3058 20.5494 20.0158C20.9877 19.497 21.2047 18.8093 21.2047 17.9566ZM30.7608 16.7248H24.6876V14.9848H30.7608V16.7248ZM25.3955 22.1216C25.4953 21.4484 25.7393 20.9151 26.1263 20.5212C26.5133 20.1275 27.0608 19.9306 27.762 19.9306C28.4092 19.9306 28.9499 20.1155 29.3894 20.4867C29.8236 20.8605 30.0691 21.4032 30.1189 22.1216H25.3955ZM30.2255 18.1854C30.9577 18.5073 31.5604 19.0181 32.035 19.7152C32.4679 20.3297 32.7456 21.0427 32.8723 21.8528C32.9465 22.3264 32.9762 23.0128 32.9641 23.9054H25.3281C25.3739 24.9416 25.7353 25.6693 26.4257 26.0857C26.8437 26.3451 27.3467 26.4754 27.9373 26.4754C28.5589 26.4754 29.0672 26.3171 29.4569 26.0019C29.6712 25.8303 29.8601 25.5935 30.0219 25.2902H32.8197C32.7456 25.9021 32.4058 26.526 31.8044 27.1592C30.8659 28.1635 29.5513 28.6663 27.8618 28.6663C26.4661 28.6663 25.2351 28.2433 24.1712 27.3946C23.1019 26.5472 22.5707 25.1665 22.5707 23.2562C22.5707 21.4644 23.052 20.0903 24.0134 19.1339C24.9775 18.1801 26.2248 17.6998 27.7606 17.6998C28.6735 17.6998 29.4946 17.8621 30.2255 18.1854ZM12.8582 25.8875V22.1588H16.3479C16.9546 22.1641 17.4279 22.2439 17.765 22.3956C18.3677 22.6683 18.6671 23.1671 18.6671 23.8961C18.6671 24.7554 18.357 25.3355 17.7353 25.6414C17.3942 25.805 16.9141 25.8875 16.2993 25.8875H12.8582ZM12.8582 16.7607V19.8455H16.3047C16.9183 19.8455 17.4185 19.7298 17.8041 19.4983C18.187 19.2669 18.3799 18.8571 18.3799 18.2718C18.3799 17.6187 18.1264 17.189 17.6193 16.9789C17.1798 16.8338 16.6216 16.7607 15.9433 16.7607H12.8582Z" fill="white"/>
</svg>
